<?xml version="1.0" encoding="utf-8"?>
<!-- Generator: Adobe Illustrator 27.0.1, SVG Export Plug-In . SVG Version: 6.00 Build 0)  -->
<svg version="1.1" id="Layer_1" xmlns="http://www.w3.org/2000/svg" xmlns:xlink="http://www.w3.org/1999/xlink" x="0px" y="0px"
	 viewBox="0 0 321.8 226.8" style="enable-background:new 0 0 321.8 226.8;" xml:space="preserve">
<style type="text/css">
	.st0{fill:#C4B4D8;}
</style>
<g>
	<path class="st0" d="M176.3,201.7c12.2,0,22.1-8.3,22.1-18.5V170h-44.1v13.1C154.2,193.3,164.1,201.7,176.3,201.7z"/>
	<path class="st0" d="M244.2,74.3c-27.4-17-58.3-32-113.4-9.6c-57.5,23.5-74.5,100-74.5,100C44.4,114.4,64.2,55.3,53,47.1
		c-3.3-2.4-8.2-2.8-13.6-0.3c-2.7,1.3-4.9,3.8-6.8,7.8c-11,22.6-11.9,47.4-11.6,72c0.3,25,2,50.5,9.8,74.4c2.4,7.6,6.2,15,10.6,21.5
		c0.7,1.1,2.5,2.8,2.8,4.2h264.7C309.2,222.9,316,118.7,244.2,74.3z M145.7,148.2c0-3.5,2.8-6.4,6.4-6.4c3.5,0,6.4,2.8,6.4,6.4
		c0,3.5-2.8,6.4-6.4,6.4C148.6,154.6,145.7,151.8,145.7,148.2z M202.6,183.2c0,12.6-11.7,22.8-26.3,22.8
		c-14.6,0-26.3-10.2-26.3-22.8v-17.4h52.6V183.2z M200.5,154.6c-3.5,0-6.4-2.8-6.4-6.4c0-3.5,2.8-6.4,6.4-6.4c3.5,0,6.4,2.8,6.4,6.4
		C206.8,151.8,204,154.6,200.5,154.6z"/>
	<ellipse cx="152.1" cy="148.2" rx="6.4" ry="6.4"/>
	<ellipse cx="200.5" cy="148.2" rx="6.4" ry="6.4"/>
	<path d="M150,183.2c0,12.6,11.7,22.8,26.3,22.8s26.3-10.2,26.3-22.8v-17.4H150C150,165.8,150,183.2,150,183.2z M154.2,170h44.1
		v13.1c0,10.2-9.9,18.5-22.1,18.5s-22.1-8.3-22.1-18.5C154.2,183.2,154.2,170,154.2,170z"/>
</g>
</svg>
